<svg width="136" height="24" viewBox="0 0 136 24" fill="none" xmlns="http://www.w3.org/2000/svg">
<path d="M47.2628 7.70719C46.997 7.71405 46.7336 7.759 46.4806 7.84064C46.2758 7.91728 46.0903 8.0378 45.9372 8.1937C45.817 8.30557 45.7208 8.44062 45.6545 8.59069C45.5837 8.76663 45.5403 8.95235 45.5258 9.1414C45.4826 9.48937 45.4628 9.83984 45.4665 10.1904V16.4746C45.4537 16.9122 45.4877 17.35 45.5681 17.7804C45.6241 18.0358 45.7514 18.2701 45.9355 18.4561C46.2487 18.7568 46.6905 18.9224 47.2611 18.9494V19.1471H41.8013V18.9562C42.0733 18.9505 42.3428 18.9032 42.6004 18.816C42.8042 18.7383 42.989 18.6179 43.1421 18.4629C43.3256 18.2689 43.4516 18.028 43.5061 17.7669C43.5843 17.3408 43.6172 16.9076 43.6043 16.4746V8.85084L39.2026 19.1555H39.0232L34.6503 9.00456V16.4746C34.6372 16.9093 34.6701 17.3442 34.7485 17.772C34.7989 18.0087 34.9083 18.229 35.0666 18.4123C35.2249 18.5957 35.427 18.7363 35.6542 18.821C35.91 18.9033 36.1762 18.9488 36.4448 18.9562V19.1538H32.502V18.9562C32.7706 18.949 33.0368 18.9035 33.2926 18.821C33.521 18.7368 33.724 18.5957 33.8825 18.4113C34.041 18.2268 34.1497 18.005 34.1983 17.7669C34.2764 17.3408 34.3093 16.9076 34.2965 16.4746V10.1904C34.2965 9.92861 34.2965 9.68366 34.2711 9.44716C34.2668 9.13038 34.2001 8.81755 34.0747 8.52649C33.946 8.27287 33.7412 8.0656 33.4889 7.93355C33.1792 7.79079 32.8431 7.71371 32.502 7.70719V7.51123H36.2112L39.912 16.6334L43.7499 7.51123H47.2628V7.70719Z" fill="#002424"/>
<path d="M49.5584 14.5133C49.5347 14.792 49.5229 14.9947 49.5229 15.1197C49.5224 15.6111 49.5961 16.0997 49.7413 16.5692C49.8623 16.9968 50.0627 17.3979 50.3321 17.7517C50.5882 18.0697 50.9129 18.326 51.2819 18.5017C51.6509 18.6814 52.0563 18.7744 52.4669 18.7737C52.7648 18.7752 53.0606 18.7237 53.3405 18.6216C53.5976 18.531 53.8317 18.3851 54.0261 18.1943C54.2735 17.921 54.4543 17.5943 54.5543 17.2398L54.7338 17.2989C54.6235 17.9049 54.2818 18.4445 53.7806 18.8041C53.2931 19.1419 52.6447 19.3109 51.8355 19.3109C51.2174 19.3249 50.6033 19.2098 50.0325 18.973C49.5268 18.7469 49.0883 18.3943 48.7594 17.9493C48.2621 17.2627 48.0067 16.431 48.0331 15.5843C48.0331 14.3049 48.4919 13.3015 49.4095 12.574C50.0546 12.053 50.8617 11.7728 51.6916 11.7817C52.1251 11.7769 52.5551 11.8591 52.9562 12.0233C53.4493 12.2229 53.8684 12.5699 54.156 13.0166C54.4437 13.4633 54.5857 13.9879 54.5628 14.5184L49.5584 14.5133ZM53.2829 14.1754C53.2709 13.7208 53.1636 13.2737 52.968 12.8628C52.8236 12.5936 52.6127 12.3657 52.3552 12.2006C52.1121 12.0436 51.8288 11.9598 51.5392 11.9591C51.2919 11.9616 51.0484 12.0195 50.8266 12.1286C50.6047 12.2377 50.4103 12.3951 50.2576 12.5892C49.8804 13.0373 49.653 13.5919 49.6075 14.1754H53.2829Z" fill="#002424"/>
<path d="M61.6645 19.4426C61.607 19.1448 61.5786 18.8421 61.5798 18.5388C61.2128 18.7866 60.8143 18.9843 60.3948 19.1267C60.0071 19.2486 59.6026 19.3091 59.1962 19.3057C58.3865 19.3252 57.5974 19.0495 56.9767 18.5303C56.5796 18.1951 56.2695 17.7692 56.0727 17.2887C55.8582 16.7716 55.7505 16.2165 55.7561 15.6569C55.7498 15.0611 55.865 14.4702 56.0947 13.9203C56.3069 13.4106 56.6342 12.9568 57.0512 12.5942C57.6975 12.049 58.5211 11.7582 59.3672 11.7766C59.7454 11.7671 60.122 11.8308 60.476 11.9641C60.8647 12.1372 61.2267 12.3648 61.551 12.6398V9.49602C61.551 8.87774 61.4478 8.43289 61.2412 8.16148C61.0364 7.88951 60.6944 7.75436 60.2255 7.75436V7.54489L62.8495 7.20703V17.0776C62.8495 17.7195 62.9517 18.1767 63.156 18.4493C63.3602 18.7218 63.6988 18.8581 64.1717 18.8581V19.0709L61.6645 19.4426ZM61.5443 15.4694C61.5567 14.8747 61.5228 14.2799 61.4427 13.6905C61.3939 13.3449 61.269 13.0143 61.077 12.7226C60.9174 12.5008 60.705 12.322 60.4591 12.2023C60.2132 12.0748 59.9405 12.0076 59.6634 12.0063C59.0562 12.0063 58.5314 12.2879 58.089 12.851C57.8087 13.2168 57.5966 13.6299 57.4626 14.0706C57.3122 14.542 57.2363 15.0338 57.2374 15.5285C57.2372 16.0155 57.3091 16.5 57.4507 16.9661C57.5736 17.3977 57.7688 17.8055 58.028 18.1722C58.4547 18.7522 58.9772 19.0422 59.5957 19.0422C59.8922 19.0423 60.1838 18.9661 60.4422 18.8209C60.7067 18.6743 60.9293 18.4626 61.0889 18.206C61.2728 17.8945 61.3941 17.5502 61.4461 17.1924C61.5233 16.6215 61.5561 16.0454 61.5443 15.4694Z" fill="#002424"/>
<path d="M69.2593 7.77625C68.9004 7.77625 68.5156 7.78751 68.1048 7.81003C67.2278 7.8562 66.5743 7.96882 66.1443 8.14789C65.7022 8.3329 65.3297 8.65204 65.0795 9.06011C64.786 9.55927 64.5863 10.1077 64.4903 10.6784L64.2939 10.6616L64.4463 7.5144H76.0108L76.1649 10.6616L75.9685 10.6784C75.8139 9.89011 75.5729 9.2921 75.2456 8.88442C74.8736 8.449 74.3727 8.14261 73.8151 8.00937C73.2857 7.85508 72.3879 7.7785 71.1216 7.77962V16.4778C71.1088 16.9118 71.1411 17.3461 71.2181 17.7735C71.2734 18.0343 71.3992 18.275 71.5821 18.4695C71.7335 18.6286 71.9194 18.7511 72.1255 18.8276C72.3812 18.9102 72.6474 18.9557 72.9161 18.9627V19.1604H67.4564V18.956C67.7278 18.9491 67.9969 18.9036 68.2554 18.8208C68.4826 18.7361 68.6847 18.5955 68.843 18.4121C69.0013 18.2288 69.1108 18.0085 69.1612 17.7718C69.2387 17.3439 69.2716 16.9091 69.2593 16.4744V7.77625Z" fill="#002424"/>
<path d="M78.1101 14.5133C78.0864 14.792 78.0763 14.9947 78.0763 15.1197C78.0753 15.611 78.1483 16.0996 78.293 16.5692C78.4138 16.9972 78.6148 17.3984 78.8855 17.7517C79.1416 18.0697 79.4662 18.326 79.8353 18.5017C80.2043 18.6814 80.6097 18.7745 81.0203 18.7737C81.3183 18.7754 81.6141 18.724 81.8939 18.6216C82.148 18.5299 82.3791 18.3841 82.5711 18.1943C82.8185 17.921 82.9992 17.5943 83.0993 17.2398L83.2787 17.2989C83.1696 17.9054 82.8276 18.4454 82.3256 18.8041C81.8403 19.1419 81.1924 19.3109 80.3821 19.3109C79.7641 19.3249 79.1499 19.2098 78.5791 18.973C78.073 18.7468 77.634 18.3942 77.3043 17.9493C76.8071 17.2627 76.5517 16.431 76.578 15.5843C76.578 14.3049 77.0368 13.3015 77.9544 12.574C78.5996 12.053 79.4066 11.7728 80.2365 11.7817C80.67 11.7769 81.1 11.8591 81.5011 12.0233C81.9942 12.2229 82.4133 12.5699 82.701 13.0166C82.9886 13.4633 83.1307 13.9879 83.1077 14.5184L78.1101 14.5133ZM81.8346 14.1754C81.8241 13.7206 81.7167 13.2732 81.5197 12.8628C81.3758 12.5933 81.1648 12.3652 80.9069 12.2006C80.6638 12.0435 80.3805 11.9596 80.0909 11.9591C79.8437 11.962 79.6003 12.0201 79.3785 12.1291C79.1567 12.2381 78.9623 12.3953 78.8093 12.5892C78.4321 13.0373 78.2047 13.5919 78.1592 14.1754H81.8346Z" fill="#002424"/>
<path d="M90.4044 17.5405L90.5737 17.6013C90.3739 18.205 90.0692 18.6397 89.6595 18.9055C89.2498 19.1713 88.6855 19.3047 87.9665 19.3058C86.8164 19.3058 85.9135 18.968 85.2578 18.2923C84.9387 17.9514 84.6902 17.5511 84.5263 17.1143C84.3625 16.6774 84.2866 16.2126 84.303 15.7465C84.304 15.2405 84.3933 14.7386 84.5671 14.2633C84.7262 13.8028 84.9728 13.3772 85.2933 13.0098C85.6427 12.6106 86.0803 12.2977 86.5715 12.0959C87.0965 11.8826 87.6588 11.7757 88.2255 11.7817C89.0517 11.7817 89.6984 11.9664 90.1657 12.3358C90.2903 12.4191 90.3938 12.5303 90.4678 12.6605C90.5419 12.7907 90.5845 12.9364 90.5923 13.0859C90.5948 13.17 90.5802 13.2539 90.5493 13.3323C90.5185 13.4106 90.4721 13.482 90.4128 13.542C90.3571 13.6011 90.2896 13.6481 90.2147 13.6798C90.1398 13.7115 90.0591 13.7273 89.9777 13.7261C89.607 13.7261 89.3344 13.4558 89.1567 12.9152C89.1053 12.7419 89.0413 12.5725 88.9654 12.4085C88.9142 12.3149 88.8431 12.2336 88.7571 12.1703C88.5685 12.0355 88.3406 11.9666 88.1087 11.9743C87.7778 11.9728 87.454 12.0705 87.1793 12.2547C86.9303 12.4188 86.7148 12.6286 86.5444 12.873C86.3505 13.1624 86.1967 13.4766 86.0873 13.8072C85.8945 14.3498 85.7938 14.9208 85.7894 15.4965C85.7899 16.0032 85.8823 16.5057 86.0619 16.9797C86.2241 17.4299 86.4771 17.8421 86.8052 18.1909C87.0221 18.4325 87.2878 18.6255 87.5848 18.7574C87.8819 18.8893 88.2035 18.957 88.5286 18.9562C88.7776 18.964 89.0256 18.9222 89.2582 18.8332C89.4908 18.7441 89.7032 18.6096 89.8829 18.4375C90.1131 18.1749 90.2902 17.8703 90.4044 17.5405Z" fill="#002424"/>
<path d="M93.6748 7.16992V13.0115C93.8359 12.8073 94.0131 12.6164 94.2047 12.4405C94.3719 12.2955 94.5589 12.1749 94.76 12.0824C95.2482 11.8659 95.7791 11.7619 96.3131 11.7783C96.8471 11.7947 97.3706 11.931 97.8446 12.177C98.1317 12.3456 98.358 12.6004 98.4913 12.9051C98.6248 13.3217 98.6821 13.7588 98.6606 14.1957V16.6823V17.3293C98.6513 17.6125 98.6741 17.8958 98.7283 18.174C98.7699 18.3464 98.8625 18.5023 98.9941 18.6216C99.1532 18.7748 99.4467 18.8913 99.8744 18.9713V19.1504H96.0991V18.9713C96.319 18.9508 96.5352 18.902 96.7425 18.826C96.8784 18.7598 96.995 18.6597 97.081 18.5355C97.1963 18.3621 97.2694 18.1643 97.2944 17.9577C97.3421 17.5988 97.3625 17.2369 97.3553 16.8749V14.172C97.3722 13.8507 97.35 13.5285 97.2893 13.2125C97.232 12.9845 97.1244 12.7721 96.9744 12.5909C96.8214 12.4194 96.6315 12.2847 96.419 12.197C96.2064 12.1092 95.9767 12.0706 95.747 12.0841C94.3701 12.0841 93.6822 13.1686 93.6833 15.3376V16.7009L93.6918 17.331C93.6825 17.6142 93.7053 17.8975 93.7595 18.1756C93.8012 18.3477 93.8931 18.5035 94.0236 18.6233C94.1827 18.7765 94.4756 18.893 94.9022 18.973V19.1521H91.127V18.973C91.3812 18.9518 91.6298 18.8866 91.8617 18.7804C92.0239 18.6827 92.1498 18.5351 92.2206 18.3598C92.2969 18.1707 92.3415 17.9704 92.3527 17.7668C92.3797 17.5033 92.3916 17.1215 92.3916 16.6215V9.93867C92.3987 9.52941 92.3845 9.12005 92.3493 8.71224C92.3316 8.50735 92.2674 8.30918 92.1614 8.13282C92.0795 7.9889 91.9579 7.87159 91.8109 7.79496C91.6247 7.7146 91.4246 7.67101 91.2218 7.66657V7.47737L93.6748 7.16992Z" fill="#002424"/>
<path d="M103.969 13.0724V16.4746C103.957 16.9046 103.988 17.3348 104.062 17.7585C104.117 18.0185 104.241 18.2589 104.421 18.4545C104.571 18.6161 104.757 18.74 104.965 18.816C105.222 18.9022 105.492 18.9495 105.764 18.9562V19.1538H100.302V18.9562C100.567 18.9585 100.83 18.9139 101.079 18.8244C101.296 18.7542 101.493 18.6331 101.653 18.4714C101.826 18.2624 101.942 18.013 101.992 17.7466C102.069 17.3272 102.103 16.901 102.093 16.4746V10.1904C102.093 9.82556 102.074 9.44716 102.034 9.05524C102.015 8.8227 101.937 8.59868 101.809 8.40363C101.681 8.20858 101.506 8.04871 101.299 7.93862C100.987 7.78969 100.645 7.71071 100.299 7.70719V7.51123H109.231L109.478 10.2834L109.282 10.3256C109.179 9.99124 109.047 9.66628 108.889 9.35425C108.63 8.87055 108.239 8.47077 107.76 8.20215C107.46 8.03419 107.134 7.91984 106.795 7.86429C106.296 7.79314 105.793 7.76207 105.29 7.77138H103.966V12.8072H104.304C105.311 12.8072 106.045 12.5819 106.505 12.1314C106.705 11.9378 106.859 11.7032 106.959 11.4439C107.075 11.11 107.144 10.7614 107.164 10.4084H107.36L107.309 15.5759H107.108C107.074 15.1111 106.965 14.6548 106.786 14.2245C106.636 13.9091 106.397 13.6439 106.099 13.4609C105.838 13.3072 105.551 13.2019 105.252 13.1501C104.828 13.0841 104.398 13.0581 103.969 13.0724Z" fill="#002424"/>
<path d="M115.624 19.3058C115.549 18.956 115.512 18.5993 115.513 18.2416C115.186 18.5816 114.793 18.8515 114.358 19.0345C113.923 19.2175 113.455 19.3099 112.983 19.3058C112.27 19.3058 111.697 19.1329 111.265 18.7872C111.054 18.6118 110.886 18.3895 110.777 18.1382C110.667 17.8868 110.617 17.6133 110.632 17.3395V14.3748V13.7261C110.641 13.4429 110.619 13.1595 110.564 12.8814C110.521 12.7106 110.432 12.5547 110.307 12.4304C110.142 12.2772 109.846 12.1646 109.418 12.0925V11.905H111.932V16.2296C111.924 16.681 111.944 17.1324 111.995 17.5811C112.024 17.8347 112.104 18.08 112.23 18.3024C112.362 18.5016 112.548 18.6597 112.767 18.7585C113.012 18.8724 113.28 18.9301 113.55 18.9274C113.859 18.9298 114.164 18.8658 114.446 18.7399C114.706 18.6319 114.933 18.457 115.103 18.2331C115.27 18.0059 115.382 17.7435 115.431 17.4662C115.497 16.9922 115.525 16.5137 115.513 16.0353V14.3663L115.504 13.7345C115.513 13.4515 115.491 13.1684 115.44 12.8899C115.399 12.7174 115.308 12.5607 115.179 12.4388C115.02 12.2857 114.724 12.1731 114.29 12.101V11.9135H116.803V16.5388C116.795 16.9498 116.811 17.361 116.85 17.7703C116.87 17.9726 116.933 18.1683 117.034 18.3446C117.122 18.4871 117.246 18.6038 117.393 18.6825C117.579 18.7666 117.779 18.8121 117.983 18.8159V18.995L115.624 19.3058Z" fill="#002424"/>
<path d="M120.687 11.7766C120.763 12.0794 120.804 12.3901 120.807 12.7023V12.8391C121.132 12.4988 121.523 12.2288 121.957 12.046C122.391 11.8632 122.857 11.7715 123.328 11.7766C124.058 11.7766 124.645 11.9455 125.089 12.2834C125.308 12.4511 125.482 12.6695 125.597 12.9198C125.711 13.17 125.763 13.4445 125.747 13.7193V17.331C125.738 17.6141 125.761 17.8975 125.815 18.1756C125.857 18.348 125.949 18.504 126.081 18.6233C126.24 18.7764 126.533 18.893 126.961 18.9729V19.152H123.191V18.9729C123.445 18.9517 123.694 18.8866 123.926 18.7804C124.088 18.6828 124.214 18.5351 124.285 18.3597C124.362 18.1708 124.407 17.9704 124.418 17.7668C124.444 17.5033 124.456 17.1232 124.456 16.6299V14.8257C124.464 14.3704 124.443 13.9151 124.393 13.4625C124.365 13.2147 124.281 12.9764 124.149 12.7648C124.011 12.5588 123.816 12.3974 123.587 12.3002C123.332 12.186 123.056 12.1284 122.776 12.1313C122.47 12.1292 122.166 12.1926 121.886 12.3171C121.629 12.4275 121.404 12.602 121.234 12.8239C121.063 13.0512 120.947 13.3148 120.895 13.5942C120.831 14.0672 120.804 14.5445 120.816 15.0217V16.6907L120.824 17.3208C120.815 17.604 120.838 17.8873 120.892 18.1655C120.934 18.3379 121.026 18.4938 121.158 18.6131C121.317 18.7663 121.61 18.8829 122.038 18.9628V19.1419H118.251V18.9628C118.505 18.9412 118.753 18.8767 118.986 18.7719C119.148 18.6743 119.274 18.5267 119.345 18.3513C119.421 18.1632 119.466 17.9642 119.478 17.7617C119.504 17.4982 119.517 17.1175 119.516 16.6198V14.5352C119.523 14.1265 119.509 13.7177 119.473 13.3104C119.455 13.1077 119.391 12.9118 119.285 12.7378C119.202 12.5951 119.081 12.4782 118.935 12.3999C118.749 12.3172 118.549 12.2724 118.346 12.2682V12.0891L120.687 11.7766Z" fill="#002424"/>
<path d="M133.393 19.4426C133.334 19.1449 133.305 18.8422 133.306 18.5388C132.94 18.7867 132.541 18.9844 132.121 19.1267C131.734 19.2486 131.329 19.3091 130.923 19.3057C130.113 19.3252 129.324 19.0495 128.703 18.5303C128.306 18.1951 127.996 17.7692 127.799 17.2887C127.584 16.7718 127.476 16.2166 127.483 15.6569C127.475 15.061 127.591 14.47 127.821 13.9203C128.033 13.4103 128.36 12.9563 128.778 12.5942C129.423 12.0498 130.246 11.7591 131.09 11.7766C131.469 11.7673 131.845 11.8309 132.199 11.9641C132.588 12.1376 132.95 12.3651 133.274 12.6398V9.49602C133.274 8.87774 133.171 8.43289 132.965 8.16148C132.758 7.89007 132.419 7.75436 131.949 7.75436V7.54489L134.571 7.20703V17.0776C134.571 17.7195 134.674 18.1767 134.879 18.4493C135.084 18.7212 135.424 18.8581 135.895 18.8581V19.0709L133.393 19.4426ZM133.273 15.4694C133.285 14.8747 133.251 14.2799 133.171 13.6905C133.122 13.3449 132.997 13.0143 132.805 12.7226C132.646 12.5008 132.433 12.322 132.187 12.2023C131.942 12.075 131.669 12.0078 131.392 12.0063C130.785 12.0063 130.26 12.2879 129.817 12.851C129.537 13.2168 129.325 13.6299 129.191 14.0706C129.041 14.542 128.965 15.0338 128.966 15.5285C128.966 16.0154 129.037 16.4997 129.177 16.9661C129.302 17.3976 129.497 17.8052 129.756 18.1722C130.183 18.7522 130.706 19.0422 131.324 19.0422C131.621 19.0428 131.912 18.9665 132.171 18.8209C132.436 18.6743 132.659 18.4627 132.819 18.206C133.003 17.8945 133.124 17.5502 133.176 17.1924C133.253 16.6214 133.285 16.0453 133.273 15.4694Z" fill="#002424"/>
<path d="M5.83473 14.2819L2.75865 14.8816L0.9235 15.2397C0.680243 14.4144 0.530331 13.5644 0.476562 12.7058L2.38451 12.6129L5.60111 12.4541C5.6141 13.0699 5.69241 13.6826 5.83473 14.2819Z" fill="#008E90"/>
<path d="M7.98002 18.2584L5.53202 19.5305L4.00837 20.3227C3.38968 19.7269 2.83895 19.0646 2.36621 18.348L4.05916 17.755L6.84743 16.7837C7.1714 17.314 7.55107 17.8084 7.98002 18.2584Z" fill="#008E90"/>
<path d="M23.1199 15.794C22.8832 16.4678 22.5851 17.1187 22.2294 17.7383L22.1566 16.7602L22.1211 16.2737C22.3625 15.8047 22.5614 15.3151 22.7153 14.8108L22.8304 15.0878L23.1199 15.794Z" fill="#008E90"/>
<path d="M23.7697 11.9559C23.7697 12.0859 23.7697 12.2143 23.7697 12.3444L23.2855 12.0995L23.0908 12.0015C23.0724 11.4077 22.9935 10.8174 22.8555 10.2396L23.0789 9.97603L23.5089 9.46924C23.6847 10.2864 23.7721 11.1201 23.7697 11.9559Z" fill="#008E90"/>
<path d="M21.8521 18.3496C21.4598 18.9427 21.0144 19.499 20.5215 20.0119L20.6772 18.9409L20.7873 18.1773C21.1439 17.7893 21.4651 17.3704 21.7472 16.9255L21.7844 17.4323L21.8521 18.3496Z" fill="#008E90"/>
<path d="M11.8145 20.632L10.2418 22.1658L9.16504 23.2149C8.35336 23.0041 7.56714 22.7055 6.82031 22.3246L8.13234 21.3786L10.1385 19.9309C10.6715 20.2216 11.2331 20.4565 11.8145 20.632Z" fill="#008E90"/>
<path d="M11.8935 3.90106C11.3215 4.0691 10.7684 4.29553 10.2429 4.57677L7.59176 3.01925L5.96484 2.06311C6.68985 1.6139 7.46191 1.24513 8.26725 0.963379L9.6707 2.09858L11.8935 3.90106Z" fill="#008E90"/>
<path d="M8.04813 6.2273C7.62144 6.66906 7.2424 7.15429 6.91725 7.67502L3.73112 6.90301L1.8418 6.44522C2.25221 5.68503 2.74621 4.97282 3.31466 4.32178L5.08886 5.03635L8.04813 6.2273Z" fill="#008E90"/>
<path d="M6.69334 8.05335C6.39282 8.59487 6.15106 9.16683 5.97215 9.75953L2.69799 9.45039L0.764648 9.26795C0.963545 8.42481 1.25656 7.60659 1.63821 6.82861L3.51738 7.28472L6.69334 8.05335Z" fill="#008E90"/>
<path d="M6.64459 16.4222L3.83938 17.3902L2.14644 17.9831C1.69819 17.2453 1.33366 16.46 1.05957 15.6417L2.89134 15.2853L5.94879 14.6907C6.11814 15.291 6.35141 15.8715 6.64459 16.4222Z" fill="#008E90"/>
<path d="M9.74209 19.6978L7.71056 21.1573L6.40022 22.1034C5.66392 21.6865 4.97535 21.1909 4.34668 20.6252L5.87033 19.8329L8.2997 18.571C8.73986 18.9957 9.22328 19.3734 9.74209 19.6978Z" fill="#008E90"/>
<path d="M5.8604 10.1718C5.70845 10.7802 5.6233 11.4032 5.60645 12.03L2.37124 12.1888L0.453131 12.2817C0.453131 12.1736 0.453131 12.0655 0.453131 11.9557C0.452348 11.1922 0.527202 10.4306 0.6766 9.68188L2.60148 9.86264L5.8604 10.1718Z" fill="#008E90"/>
<path d="M20.2979 5.88783C19.9195 5.53487 19.5105 5.21604 19.0756 4.93508L18.3477 3.19342L17.7568 1.77441C18.4827 2.17915 19.1637 2.65932 19.7884 3.20693L20.0305 4.50262L20.2979 5.88783Z" fill="#008E90"/>
<path d="M9.81988 4.81181C9.30138 5.12593 8.81687 5.49277 8.3741 5.90648L5.3996 4.70877L3.61523 3.98913C4.20396 3.36417 4.85967 2.80561 5.57059 2.32349L7.18396 3.2678L9.81988 4.81181Z" fill="#008E90"/>
<path d="M18.4691 4.58369C17.9926 4.32876 17.4933 4.11893 16.9776 3.95697L15.7366 2.03118L14.8428 0.642578C15.6483 0.836109 16.4309 1.11472 17.1773 1.47371L17.7479 2.8471L18.4691 4.58369Z" fill="#008E90"/>
<path d="M14.1299 3.55668C13.5474 3.57021 12.9678 3.64208 12.3997 3.77122L10.1633 1.96199L8.74805 0.814956C9.55717 0.571715 10.3905 0.417633 11.2333 0.355469L12.3879 1.63088L14.1299 3.55668Z" fill="#008E90"/>
<path d="M23.3807 8.96575L22.9558 9.47253L22.7154 9.75464C22.558 9.23734 22.3528 8.73572 22.1025 8.25624L22.1923 7.42342L22.3091 6.32031C22.7739 7.15481 23.1338 8.04333 23.3807 8.96575Z" fill="#008E90"/>
<path d="M23.7381 12.8038C23.6818 13.6046 23.5411 14.3974 23.3182 15.1688L23.0101 14.4187L22.8916 14.1315C23.01 13.5861 23.0752 13.0306 23.0863 12.4727L23.2674 12.5639L23.7381 12.8038Z" fill="#008E90"/>
<path d="M16.3671 3.78971C15.8205 3.6603 15.2626 3.58393 14.7013 3.56165L12.9457 1.62235L11.7725 0.32666C11.8859 0.32666 11.9976 0.32666 12.111 0.32666C12.8323 0.326971 13.552 0.393129 14.2611 0.524307L15.1363 1.87574L16.3671 3.78971Z" fill="#008E90"/>
<path d="M21.9532 5.71383L21.8415 6.76457L21.745 7.63794C21.4742 7.20952 21.1666 6.80538 20.8257 6.43009L20.5684 5.05163L20.3145 3.7002C20.9342 4.30837 21.4839 4.98378 21.9532 5.71383Z" fill="#008E90"/>
<path d="M18.4386 19.9883L18.0696 21.0779L17.7039 22.1658C17.024 22.5381 16.3082 22.8409 15.5674 23.0695L16.1718 21.9394L16.8709 20.6353C17.4133 20.4709 17.9384 20.2543 18.4386 19.9883Z" fill="#008E90"/>
<path d="M16.3163 20.7805L15.6035 22.1134L15.0127 23.2266C14.2368 23.4242 13.4426 23.5414 12.6426 23.5763L13.489 22.4647L14.5962 21.0001C15.1754 20.9834 15.7515 20.9099 16.3163 20.7805Z" fill="#008E90"/>
<path d="M14.0571 20.9986L12.9347 22.4835L12.0984 23.5883C11.2755 23.5886 10.455 23.5019 9.65039 23.3299L10.7305 22.2757L12.2863 20.7554C12.8668 20.896 13.4601 20.9775 14.0571 20.9986Z" fill="#008E90"/>
<path d="M20.2893 18.6775L20.1742 19.4715L20.0252 20.4969C19.48 21.0017 18.8882 21.4542 18.2578 21.8483L18.6336 20.7317L18.9909 19.6759C19.4541 19.3844 19.8888 19.0501 20.2893 18.6775Z" fill="#008E90"/>
</svg>
