<svg width="227" height="40" viewBox="0 0 227 40" fill="none" xmlns="http://www.w3.org/2000/svg">
<path d="M78.7713 12.8454C78.3283 12.8568 77.8893 12.9317 77.4677 13.0678C77.1263 13.1956 76.8171 13.3964 76.562 13.6563C76.3616 13.8427 76.2013 14.0678 76.0908 14.3179C75.9728 14.6111 75.9005 14.9207 75.8763 15.2357C75.8044 15.8157 75.7714 16.3998 75.7776 16.9842V27.4578C75.7562 28.1872 75.8129 28.9168 75.9469 29.6341C76.0401 30.0598 76.2524 30.4503 76.5591 30.7603C77.0811 31.2615 77.8176 31.5374 78.7684 31.5824V31.9119H69.6688V31.5937C70.1221 31.5842 70.5713 31.5054 71.0006 31.36C71.3403 31.2306 71.6483 31.03 71.9035 30.7716C72.2093 30.4483 72.4193 30.0468 72.5102 29.6116C72.6404 28.9014 72.6953 28.1795 72.6738 27.4578V14.7515L65.3377 31.9259H65.0386L57.7505 15.0077V27.4578C57.7286 28.1823 57.7835 28.9071 57.9142 29.6201C57.9982 30.0146 58.1805 30.3817 58.4444 30.6873C58.7082 30.9929 59.0451 31.2272 59.4237 31.3685C59.85 31.5056 60.2937 31.5814 60.7414 31.5937V31.9231H54.1699V31.5937C54.6177 31.5817 55.0614 31.5058 55.4876 31.3685C55.8683 31.228 56.2067 30.993 56.4709 30.6855C56.735 30.3781 56.9162 30.0084 56.9971 29.6116C57.1274 28.9014 57.1822 28.1795 57.1608 27.4578V16.9842C57.1608 16.5478 57.1608 16.1395 57.1185 15.7453C57.1113 15.2174 57.0001 14.696 56.7912 14.2109C56.5767 13.7882 56.2354 13.4427 55.8149 13.2227C55.2986 12.9847 54.7385 12.8563 54.1699 12.8454V12.5188H60.352L66.52 27.7224L72.9165 12.5188H78.7713V12.8454Z" fill="#EAF4F4"/>
<path d="M82.5971 24.1892C82.5576 24.6538 82.5378 24.9916 82.5378 25.2C82.5371 26.0189 82.6598 26.8332 82.9018 27.6157C83.1035 28.3283 83.4375 28.9969 83.8865 29.5865C84.3134 30.1165 84.8544 30.5438 85.4694 30.8366C86.0845 31.136 86.7601 31.2911 87.4445 31.2899C87.9411 31.2923 88.4341 31.2065 88.9005 31.0365C89.3291 30.8854 89.7192 30.6422 90.0432 30.3242C90.4555 29.8687 90.7568 29.3242 90.9235 28.7334L91.2226 28.8319C91.0388 29.8419 90.4693 30.7413 89.6341 31.3405C88.8215 31.9036 87.7408 32.1852 86.3921 32.1852C85.3621 32.2085 84.3385 32.0167 83.3871 31.6221C82.5444 31.2452 81.8135 30.6575 81.2653 29.9159C80.4366 28.7715 80.0109 27.3855 80.0548 25.9742C80.0548 23.842 80.8195 22.1696 82.3488 20.957C83.4241 20.0888 84.7691 19.6218 86.1523 19.6366C86.8748 19.6286 87.5915 19.7655 88.26 20.0392C89.0818 20.3719 89.7803 20.9502 90.2597 21.6947C90.7391 22.4392 90.9759 23.3135 90.9376 24.1977L82.5971 24.1892ZM88.8045 23.6261C88.7844 22.8684 88.6057 22.1232 88.2797 21.4385C88.039 20.9898 87.6874 20.6099 87.2583 20.3348C86.8531 20.0731 86.381 19.9333 85.8983 19.9322C85.4862 19.9364 85.0803 20.033 84.7106 20.2147C84.3409 20.3965 84.0168 20.6589 83.7624 20.9824C83.1336 21.7292 82.7548 22.6536 82.6789 23.6261H88.8045Z" fill="#EAF4F4"/>
<path d="M102.774 32.4048C102.679 31.9084 102.631 31.404 102.633 30.8985C102.022 31.3115 101.357 31.641 100.658 31.8783C100.012 32.0815 99.338 32.1823 98.6606 32.1767C97.3111 32.2092 95.996 31.7497 94.9615 30.8844C94.2997 30.3256 93.7828 29.6158 93.4548 28.815C93.0972 27.9531 92.9178 27.028 92.9272 26.0953C92.9166 25.1023 93.1086 24.1175 93.4915 23.2009C93.8451 22.3515 94.3907 21.5951 95.0857 20.9908C96.1628 20.0822 97.5355 19.5975 98.9456 19.6281C99.5761 19.6123 100.204 19.7184 100.794 19.9406C101.441 20.2292 102.045 20.6084 102.585 21.0668V15.8272C102.585 14.7967 102.413 14.0553 102.069 13.603C101.728 13.1497 101.158 12.9244 100.376 12.9244V12.5753L104.75 12.0122V28.4631C104.75 29.533 104.92 30.295 105.26 30.7493C105.601 31.2035 106.165 31.4306 106.953 31.4306V31.7854L102.774 32.4048ZM102.574 25.7827C102.595 24.7916 102.538 23.8004 102.405 22.818C102.323 22.242 102.115 21.6911 101.795 21.2048C101.529 20.8351 101.175 20.5372 100.765 20.3376C100.356 20.1251 99.9011 20.0132 99.4394 20.011C98.4274 20.011 97.5527 20.4802 96.8153 21.4187C96.3482 22.0285 95.9946 22.7171 95.7713 23.4515C95.5207 24.2371 95.3941 25.0568 95.396 25.8813C95.3957 26.6931 95.5155 27.5004 95.7516 28.2773C95.9564 28.9967 96.2817 29.6764 96.7137 30.2875C97.4248 31.2542 98.2957 31.7375 99.3265 31.7375C99.8207 31.7377 100.307 31.6107 100.737 31.3687C101.178 31.1243 101.549 30.7715 101.815 30.3438C102.122 29.8247 102.324 29.2509 102.41 28.6545C102.539 27.7029 102.594 26.7428 102.574 25.7827Z" fill="#EAF4F4"/>
<path d="M115.432 12.9611C114.834 12.9611 114.192 12.9798 113.508 13.0174C112.046 13.0943 110.957 13.282 110.24 13.5805C109.503 13.8888 108.882 14.4207 108.465 15.1008C107.976 15.9328 107.644 16.8468 107.484 17.7981L107.156 17.7699L107.41 12.5247H126.684L126.941 17.7699L126.614 17.7981C126.356 16.4842 125.955 15.4875 125.409 14.808C124.789 14.0823 123.954 13.5717 123.025 13.3496C122.143 13.0924 120.646 12.9648 118.536 12.9667V27.4636C118.514 28.1871 118.568 28.9108 118.696 29.6231C118.789 30.0578 118.998 30.459 119.303 30.7831C119.556 31.0483 119.865 31.2524 120.209 31.38C120.635 31.5176 121.079 31.5934 121.527 31.6052V31.9346H112.427V31.5939C112.879 31.5825 113.328 31.5067 113.759 31.3687C114.137 31.2274 114.474 30.9931 114.738 30.6875C115.002 30.3819 115.184 30.0149 115.268 29.6203C115.398 28.9071 115.452 28.1825 115.432 27.458V12.9611Z" fill="#EAF4F4"/>
<path d="M130.184 24.1892C130.144 24.6538 130.127 24.9916 130.127 25.2C130.125 26.0187 130.247 26.8331 130.488 27.6157C130.69 28.329 131.025 28.9978 131.476 29.5865C131.903 30.1165 132.444 30.5438 133.059 30.8366C133.674 31.1361 134.349 31.2912 135.034 31.2899C135.53 31.2928 136.024 31.207 136.49 31.0365C136.913 30.8836 137.298 30.6405 137.618 30.3242C138.031 29.8687 138.332 29.3242 138.499 28.7334L138.798 28.8319C138.616 29.8427 138.046 30.7428 137.209 31.3405C136.4 31.9036 135.321 32.1852 133.97 32.1852C132.94 32.2085 131.917 32.0167 130.965 31.6221C130.122 31.2451 129.39 30.6574 128.84 29.9159C128.012 28.7715 127.586 27.3855 127.63 25.9742C127.63 23.842 128.395 22.1696 129.924 20.957C130.999 20.0888 132.344 19.6218 133.727 19.6366C134.45 19.6286 135.167 19.7655 135.835 20.0392C136.657 20.3719 137.356 20.9502 137.835 21.6947C138.314 22.4392 138.551 23.3135 138.513 24.1977L130.184 24.1892ZM136.391 23.6261C136.373 22.868 136.195 22.1223 135.866 21.4385C135.626 20.9892 135.275 20.6091 134.845 20.3348C134.44 20.0728 133.968 19.933 133.485 19.9322C133.073 19.937 132.667 20.0338 132.297 20.2156C131.928 20.3973 131.604 20.6593 131.349 20.9824C130.72 21.7292 130.341 22.6536 130.265 23.6261H136.391Z" fill="#EAF4F4"/>
<path d="M150.674 29.2344L150.956 29.3357C150.623 30.3418 150.115 31.0663 149.432 31.5093C148.749 31.9523 147.809 32.1747 146.611 32.1766C144.694 32.1766 143.189 31.6135 142.096 30.4873C141.564 29.9192 141.15 29.252 140.877 28.5239C140.604 27.7959 140.477 27.0212 140.505 26.2443C140.506 25.4011 140.655 24.5645 140.945 23.7723C141.21 23.0048 141.621 22.2955 142.155 21.6832C142.738 21.0178 143.467 20.4963 144.286 20.1601C145.16 19.8044 146.098 19.6264 147.042 19.6364C148.419 19.6364 149.497 19.9442 150.276 20.5599C150.484 20.6987 150.656 20.884 150.779 21.101C150.903 21.318 150.974 21.5608 150.987 21.8099C150.991 21.9502 150.967 22.0899 150.915 22.2206C150.864 22.3512 150.786 22.4701 150.688 22.5701C150.595 22.6687 150.482 22.7469 150.358 22.7998C150.233 22.8526 150.098 22.8789 149.963 22.877C149.345 22.877 148.89 22.4265 148.594 21.5256C148.508 21.2367 148.402 20.9544 148.275 20.6809C148.19 20.5249 148.072 20.3895 147.928 20.2839C147.614 20.0593 147.234 19.9445 146.848 19.9573C146.296 19.9548 145.756 20.1176 145.299 20.4247C144.883 20.6981 144.524 21.0478 144.24 21.4552C143.917 21.9374 143.661 22.4612 143.479 23.0122C143.157 23.9165 142.989 24.8681 142.982 25.8276C142.983 26.6722 143.137 27.5097 143.436 28.2996C143.707 29.0499 144.128 29.737 144.675 30.3183C145.037 30.721 145.479 31.0427 145.974 31.2625C146.469 31.4824 147.005 31.5952 147.547 31.5938C147.962 31.6069 148.376 31.5372 148.763 31.3888C149.151 31.2404 149.505 31.0162 149.805 30.7294C150.188 30.2917 150.483 29.784 150.674 29.2344Z" fill="#EAF4F4"/>
<path d="M156.124 11.9502V21.6861C156.393 21.3458 156.688 21.0276 157.008 20.7345C157.286 20.4929 157.598 20.2919 157.933 20.1376C158.747 19.7768 159.632 19.6035 160.522 19.6308C161.412 19.6581 162.284 19.8852 163.074 20.2953C163.552 20.5762 163.93 21.001 164.152 21.5088C164.374 22.2031 164.47 22.9317 164.434 23.6598V27.8042V28.8825C164.419 29.3545 164.456 29.8267 164.547 30.2903C164.616 30.5776 164.771 30.8376 164.99 31.0364C165.255 31.2916 165.744 31.4859 166.457 31.6192V31.9176H160.165V31.6192C160.531 31.5851 160.892 31.5037 161.237 31.377C161.464 31.2666 161.658 31.0998 161.801 30.8928C161.994 30.6038 162.115 30.2741 162.157 29.9299C162.237 29.3317 162.271 28.7284 162.259 28.1252V23.6204C162.287 23.0848 162.25 22.5479 162.148 22.0212C162.053 21.6412 161.874 21.2872 161.624 20.9851C161.369 20.6993 161.052 20.4749 160.698 20.3286C160.344 20.1823 159.961 20.118 159.578 20.1404C157.283 20.1404 156.137 21.948 156.139 25.5631V27.8352L156.153 28.8853C156.137 29.3573 156.175 29.8295 156.265 30.2931C156.335 30.5798 156.488 30.8395 156.706 31.0392C156.971 31.2945 157.459 31.4887 158.17 31.622V31.9204H151.878V31.622C152.302 31.5866 152.716 31.478 153.103 31.301C153.373 31.1382 153.583 30.8922 153.701 30.6C153.828 30.2848 153.902 29.951 153.921 29.6117C153.966 29.1725 153.986 28.5362 153.986 27.7028V16.5648C153.997 15.8827 153.974 15.2004 153.915 14.5207C153.886 14.1792 153.779 13.849 153.602 13.555C153.466 13.3152 153.263 13.1196 153.018 12.9919C152.707 12.858 152.374 12.7853 152.036 12.7779V12.4626L156.124 11.9502Z" fill="#EAF4F4"/>
<path d="M173.283 21.7874V27.4578C173.262 28.1744 173.314 28.8913 173.438 29.5975C173.53 30.0309 173.736 30.4316 174.037 30.7575C174.287 31.027 174.597 31.2334 174.942 31.36C175.372 31.5038 175.821 31.5826 176.274 31.5937V31.9231H167.172V31.5937C167.613 31.5976 168.051 31.5232 168.467 31.3741C168.828 31.2571 169.156 31.0553 169.423 30.7857C169.711 30.4375 169.905 30.0218 169.988 29.5778C170.117 28.8788 170.173 28.1684 170.157 27.4578V16.9842C170.157 16.376 170.124 15.7453 170.058 15.0922C170.026 14.7046 169.897 14.3312 169.683 14.0061C169.469 13.681 169.177 13.4146 168.834 13.2311C168.312 12.9829 167.743 12.8513 167.166 12.8454V12.5188H182.053L182.465 17.139L182.137 17.2094C181.966 16.6521 181.747 16.1105 181.483 15.5905C181.052 14.7843 180.399 14.118 179.601 13.6703C179.102 13.3904 178.557 13.1998 177.992 13.1072C177.162 12.9887 176.323 12.9369 175.484 12.9524H173.278V21.3453H173.842C175.52 21.3453 176.742 20.9699 177.51 20.2192C177.842 19.8964 178.1 19.5054 178.266 19.0732C178.46 18.5167 178.575 17.9358 178.608 17.3474H178.935L178.85 25.9599H178.514C178.458 25.1853 178.277 24.4247 177.978 23.7075C177.728 23.1819 177.33 22.7399 176.833 22.4349C176.398 22.1787 175.92 22.0032 175.422 21.9169C174.715 21.8069 173.999 21.7636 173.283 21.7874Z" fill="#EAF4F4"/>
<path d="M192.706 32.1767C192.581 31.5937 192.519 30.9991 192.52 30.4029C191.976 30.9697 191.321 31.4195 190.596 31.7245C189.871 32.0295 189.091 32.1834 188.305 32.1767C187.116 32.1767 186.161 31.8886 185.441 31.3123C185.089 31.02 184.81 30.6496 184.627 30.2306C184.443 29.8117 184.361 29.3559 184.385 28.8995V23.9583V22.8771C184.401 22.4051 184.364 21.9328 184.272 21.4694C184.201 21.1846 184.052 20.9248 183.844 20.7177C183.569 20.4624 183.075 20.2747 182.362 20.1546V19.842H186.552V27.0497C186.538 27.8019 186.573 28.5543 186.657 29.3021C186.706 29.7249 186.839 30.1336 187.049 30.5043C187.27 30.8363 187.58 31.0997 187.943 31.2645C188.352 31.4543 188.799 31.5505 189.25 31.546C189.764 31.5499 190.273 31.4433 190.742 31.2335C191.176 31.0535 191.553 30.762 191.837 30.3889C192.115 30.0102 192.302 29.5729 192.384 29.1106C192.495 28.3207 192.54 27.5232 192.52 26.7259V23.9442L192.506 22.8912C192.52 22.4195 192.484 21.9476 192.399 21.4835C192.33 21.196 192.179 20.9348 191.964 20.7317C191.699 20.4765 191.205 20.2888 190.483 20.1686V19.8561H194.67V27.5649C194.658 28.25 194.684 28.9352 194.749 29.6174C194.782 29.9546 194.887 30.2809 195.057 30.5747C195.202 30.8122 195.409 31.0066 195.655 31.1378C195.963 31.2781 196.297 31.3537 196.637 31.3602V31.6586L192.706 32.1767Z" fill="#EAF4F4"/>
<path d="M201.146 19.628C201.273 20.1327 201.34 20.6506 201.347 21.1709V21.399C201.887 20.8317 202.54 20.3817 203.262 20.0771C203.985 19.7724 204.763 19.6195 205.548 19.628C206.765 19.628 207.743 19.9096 208.482 20.4727C208.847 20.7522 209.137 21.1163 209.329 21.5334C209.52 21.9505 209.606 22.4079 209.58 22.8658V28.8853C209.565 29.3573 209.602 29.8295 209.693 30.2931C209.762 30.5804 209.917 30.8404 210.136 31.0392C210.401 31.2944 210.89 31.4887 211.603 31.622V31.9204H205.319V31.622C205.743 31.5866 206.157 31.478 206.544 31.301C206.814 31.1384 207.024 30.8923 207.142 30.6C207.27 30.285 207.346 29.9511 207.365 29.6117C207.407 29.1725 207.427 28.539 207.427 27.7169V24.71C207.442 23.9511 207.407 23.1922 207.323 22.4379C207.275 22.025 207.137 21.6277 206.916 21.2751C206.686 20.9317 206.361 20.6627 205.98 20.5008C205.555 20.3105 205.094 20.2144 204.628 20.2193C204.117 20.2158 203.611 20.3214 203.144 20.529C202.715 20.7129 202.341 21.0037 202.058 21.3736C201.773 21.7524 201.58 22.1918 201.493 22.6575C201.386 23.4457 201.341 24.2413 201.361 25.0366V27.8183L201.375 28.8684C201.359 29.3404 201.397 29.8126 201.488 30.2762C201.557 30.5636 201.711 30.8235 201.931 31.0223C202.196 31.2776 202.685 31.4718 203.398 31.6051V31.9035H197.086V31.6051C197.509 31.5691 197.923 31.4615 198.31 31.2869C198.581 31.1243 198.791 30.8782 198.909 30.5859C199.036 30.2725 199.111 29.9407 199.132 29.6033C199.175 29.1641 199.196 28.5296 199.194 27.7V24.2257C199.206 23.5445 199.182 22.8632 199.123 22.1845C199.093 21.8466 198.986 21.5201 198.81 21.23C198.671 20.9923 198.469 20.7974 198.226 20.6669C197.917 20.5291 197.583 20.4544 197.244 20.4473V20.1489L201.146 19.628Z" fill="#EAF4F4"/>
<path d="M222.321 32.4048C222.223 31.9087 222.175 31.4041 222.177 30.8985C221.566 31.3116 220.902 31.6412 220.202 31.8783C219.556 32.0815 218.882 32.1823 218.205 32.1767C216.855 32.2092 215.54 31.7497 214.506 30.8844C213.844 30.3256 213.327 29.6158 212.999 28.815C212.64 27.9535 212.46 27.0282 212.471 26.0953C212.459 25.1021 212.651 24.1171 213.036 23.2009C213.388 22.3509 213.934 21.5943 214.63 20.9908C215.705 20.0835 217.076 19.5989 218.484 19.6281C219.114 19.6126 219.742 19.7187 220.332 19.9406C220.98 20.2299 221.583 20.609 222.124 21.0668V15.8272C222.124 14.7967 221.952 14.0553 221.608 13.603C221.263 13.1506 220.699 12.9244 219.915 12.9244V12.5753L224.285 12.0122V28.4631C224.285 29.533 224.456 30.295 224.799 30.7493C225.14 31.2026 225.707 31.4306 226.492 31.4306V31.7854L222.321 32.4048ZM222.121 25.7827C222.142 24.7916 222.085 23.8004 221.952 22.818C221.87 22.242 221.662 21.6911 221.342 21.2048C221.076 20.8351 220.722 20.5372 220.312 20.3376C219.903 20.1255 219.448 20.0135 218.986 20.011C217.974 20.011 217.1 20.4802 216.362 21.4187C215.895 22.0285 215.542 22.7171 215.318 23.4515C215.068 24.2371 214.941 25.0568 214.943 25.8813C214.943 26.6928 215.062 27.5 215.296 28.2773C215.503 28.9964 215.829 29.6759 216.261 30.2875C216.972 31.2542 217.843 31.7375 218.873 31.7375C219.368 31.7385 219.854 31.6114 220.284 31.3687C220.726 31.1244 221.098 30.7716 221.365 30.3438C221.671 29.8247 221.874 29.2509 221.96 28.6545C222.088 27.7028 222.142 26.7427 222.121 25.7827Z" fill="#EAF4F4"/>
<path d="M9.72423 23.8034L4.59743 24.8029L1.53884 25.3998C1.13341 24.0242 0.883559 22.6077 0.793945 21.1766L3.97386 21.0217L9.33486 20.7571C9.35651 21.7834 9.48703 22.8045 9.72423 23.8034Z" fill="#EAF4F4"/>
<path d="M13.2997 30.4311L9.2197 32.5511L6.68029 33.8716C5.64914 32.8785 4.73125 31.7747 3.94336 30.5803L6.76494 29.592L11.4121 27.9731C11.952 28.857 12.5848 29.681 13.2997 30.4311Z" fill="#EAF4F4"/>
<path d="M38.5329 26.3232C38.1383 27.4463 37.6415 28.531 37.0487 29.5638L36.9274 27.9336L36.8682 27.1228C37.2705 26.3411 37.6019 25.5252 37.8585 24.6846L38.0504 25.1463L38.5329 26.3232Z" fill="#EAF4F4"/>
<path d="M39.6164 19.9264C39.6164 20.1432 39.6164 20.3571 39.6164 20.5739L38.8095 20.1657L38.485 20.0024C38.4543 19.0128 38.3229 18.0289 38.0928 17.0658L38.4652 16.6266L39.1819 15.782C39.4748 17.144 39.6205 18.5334 39.6164 19.9264Z" fill="#EAF4F4"/>
<path d="M36.4199 30.5832C35.766 31.5716 35.0237 32.4988 34.2021 33.3536L34.4617 31.5686L34.6451 30.296C35.2394 29.6494 35.7748 28.9512 36.245 28.2097L36.307 29.0544L36.4199 30.5832Z" fill="#EAF4F4"/>
<path d="M19.6908 34.3867L17.0696 36.9432L15.2751 38.6916C13.9223 38.3402 12.6119 37.8427 11.3672 37.2078L13.5539 35.6311L16.8975 33.2183C17.7858 33.7027 18.7219 34.0943 19.6908 34.3867Z" fill="#EAF4F4"/>
<path d="M19.8235 6.50233C18.8702 6.7824 17.9483 7.15979 17.0725 7.62852L12.6539 5.03265L9.94238 3.43908C11.1507 2.6904 12.4375 2.07579 13.7797 1.6062L16.1188 3.49821L19.8235 6.50233Z" fill="#EAF4F4"/>
<path d="M13.4123 10.3792C12.7011 11.1155 12.0694 11.9242 11.5274 12.7921L6.21724 11.5054L3.06836 10.7424C3.75238 9.47545 4.57572 8.28845 5.52313 7.20337L8.48014 8.39432L13.4123 10.3792Z" fill="#EAF4F4"/>
<path d="M11.1556 13.4228C10.6547 14.3253 10.2518 15.2786 9.95358 16.2665L4.49665 15.7512L1.27441 15.4472C1.60591 14.0419 2.09427 12.6782 2.73035 11.3816L5.86229 12.1418L11.1556 13.4228Z" fill="#EAF4F4"/>
<path d="M11.073 27.3707L6.39767 28.984L3.5761 29.9722C2.82902 28.7426 2.22146 27.4338 1.76465 26.07L4.81759 25.4759L9.91335 24.4849C10.1956 25.4854 10.5844 26.4528 11.073 27.3707Z" fill="#EAF4F4"/>
<path d="M16.2365 32.8298L12.8506 35.2624L10.6667 36.8391C9.43955 36.1444 8.29192 35.3183 7.24414 34.3755L9.78356 33.0551L13.8325 30.9519C14.5661 31.6597 15.3718 32.2891 16.2365 32.8298Z" fill="#EAF4F4"/>
<path d="M9.767 16.9532C9.51376 17.9672 9.37184 19.0056 9.34377 20.0502L3.95174 20.3149L0.754893 20.4697C0.754893 20.2896 0.754893 20.1094 0.754893 19.9264C0.753588 18.654 0.878344 17.3846 1.12734 16.1367L4.33547 16.438L9.767 16.9532Z" fill="#EAF4F4"/>
<path d="M33.8289 9.81322C33.1982 9.22495 32.5164 8.69357 31.7918 8.22529L30.5785 5.32252L29.5938 2.95752C30.8035 3.63208 31.9385 4.43237 32.9796 5.34505L33.3831 7.50452L33.8289 9.81322Z" fill="#EAF4F4"/>
<path d="M16.3665 8.01977C15.5023 8.54329 14.6948 9.1547 13.9568 9.84421L8.99933 7.84803L6.02539 6.64863C7.00659 5.60704 8.09945 4.6761 9.28431 3.87256L11.9733 5.44642L16.3665 8.01977Z" fill="#EAF4F4"/>
<path d="M30.7821 7.63981C29.988 7.21492 29.1558 6.86521 28.2963 6.59527L26.2281 3.38562L24.7383 1.07129C26.0809 1.39384 27.3852 1.8582 28.6292 2.45651L29.5801 4.7455L30.7821 7.63981Z" fill="#EAF4F4"/>
<path d="M23.5508 5.92788C22.5801 5.95043 21.614 6.07022 20.6672 6.28544L16.9399 3.27006L14.5811 1.35834C15.9296 0.952939 17.3186 0.696137 18.7231 0.592529L20.6474 2.71822L23.5508 5.92788Z" fill="#EAF4F4"/>
<path d="M38.9672 14.943L38.259 15.7876L37.8583 16.2578C37.596 15.3956 37.2541 14.5596 36.8369 13.7605L36.9865 12.3725L37.1811 10.5339C37.9559 11.9248 38.5558 13.4056 38.9672 14.943Z" fill="#EAF4F4"/>
<path d="M39.5631 21.3399C39.4694 22.6747 39.2349 23.9959 38.8634 25.2816L38.3499 24.0315L38.1523 23.5529C38.3496 22.6439 38.4583 21.718 38.4768 20.7881L38.7787 20.9401L39.5631 21.3399Z" fill="#EAF4F4"/>
<path d="M27.2779 6.31642C26.3668 6.10074 25.437 5.97345 24.5014 5.93633L21.5755 2.70415L19.6201 0.544678C19.8092 0.544678 19.9954 0.544678 20.1844 0.544678C21.3865 0.545196 22.5859 0.655459 23.7678 0.874089L25.2266 3.12648L27.2779 6.31642Z" fill="#EAF4F4"/>
<path d="M36.5887 9.5233L36.4025 11.2745L36.2416 12.7301C35.7903 12.0161 35.2777 11.3425 34.7095 10.7171L34.2807 8.41963L33.8574 6.16724C34.8903 7.18086 35.8064 8.30654 36.5887 9.5233Z" fill="#EAF4F4"/>
<path d="M30.7317 33.314L30.1166 35.1299L29.5071 36.9431C28.374 37.5636 27.181 38.0683 25.9463 38.4494L26.9536 36.5658L28.1189 34.3923C29.0229 34.1184 29.8979 33.7573 30.7317 33.314Z" fill="#EAF4F4"/>
<path d="M27.1931 34.6345L26.0052 36.8559L25.0205 38.7113C23.7274 39.0407 22.4036 39.236 21.0703 39.2942L22.4811 37.4416L24.3264 35.0005C25.2917 34.9727 26.2519 34.8501 27.1931 34.6345Z" fill="#EAF4F4"/>
<path d="M23.4295 34.9977L21.5588 37.4725L20.165 39.3139C18.7935 39.3143 17.4259 39.1699 16.085 38.8831L17.8851 37.1262L20.4782 34.5923C21.4457 34.8266 22.4345 34.9625 23.4295 34.9977Z" fill="#EAF4F4"/>
<path d="M33.8156 31.1292L33.6237 32.4524L33.3754 34.1614C32.4666 35.0029 31.4803 35.757 30.4297 36.4138L31.0561 34.5528L31.6514 32.7931C32.4234 32.3073 33.148 31.7502 33.8156 31.1292Z" fill="#EAF4F4"/>
</svg>
