<svg width="627" height="588" viewBox="0 0 627 588" fill="none" xmlns="http://www.w3.org/2000/svg">
<g opacity="0.4">
<path d="M236.986 615.404L101.535 641.849L20.7271 657.642C10.0156 621.245 3.41447 583.765 1.04688 545.9L85.0605 541.803L226.699 534.8C227.271 561.956 230.719 588.974 236.986 615.404Z" fill="white"/>
<path d="M503.787 157.631C478.599 165.042 454.243 175.027 431.104 187.429L314.365 118.745L242.726 76.5808C274.65 56.7715 308.647 40.5095 344.109 28.0847L405.907 78.1452L503.787 157.631Z" fill="white"/>
<path d="M334.413 260.208C315.624 279.689 298.934 301.087 284.616 324.05L144.32 290.006L61.126 269.818C79.198 236.295 100.951 204.888 125.981 176.178L204.106 207.689L334.413 260.208Z" fill="white"/>
<path d="M274.775 340.74C261.542 364.62 250.896 389.843 243.018 415.98L98.8457 402.347L13.7139 394.302C22.472 357.121 35.3746 321.039 52.1797 286.731L134.926 306.845L274.775 340.74Z" fill="white"/>
<path d="M238.101 434.154C231.41 460.982 227.661 488.459 226.919 516.098L84.4612 523.1L0.00026774 527.197C0.00026774 522.43 0.00026774 517.662 0.00026774 512.82C-0.0342132 479.154 3.26185 445.568 9.84037 412.55L94.5995 420.521L238.101 434.154Z" fill="white"/>
<path d="M412.464 197.781C389.633 211.633 368.298 227.81 348.801 246.054L217.824 193.237L139.252 161.502C165.175 133.943 194.049 109.311 225.353 88.0505L296.395 129.693L412.464 197.781Z" fill="white"/>
<path d="M602.264 142.433C576.616 143.03 551.092 146.199 526.078 151.894L427.602 72.1099L365.281 21.528C400.91 10.8014 437.606 4.00673 474.715 1.26538L525.556 57.5089L602.264 142.433Z" fill="white"/>
<path d="M700.729 152.714C676.659 147.008 652.094 143.64 627.375 142.657L550.071 57.1374L498.41 0C503.405 0 508.325 0 513.319 0C545.077 0.0137161 576.767 2.93116 607.993 8.71587L646.534 68.3117L700.729 152.714Z" fill="white"/>
</g>
</svg>
