<svg width="180" height="176" viewBox="0 0 180 176" fill="none" xmlns="http://www.w3.org/2000/svg">
<g opacity="0.4">
<path d="M182.21 57.0123C173.1 59.6925 164.291 63.304 155.922 67.7897L113.7 42.9478L87.7891 27.6979C99.3356 20.5332 111.632 14.6515 124.457 10.1577L146.809 28.2637L182.21 57.0123Z" fill="white"/>
<path d="M120.95 94.1125C114.155 101.158 108.118 108.898 102.94 117.203L52.1971 104.89L22.1074 97.5882C28.6437 85.4635 36.5112 74.1042 45.5644 63.7203L73.8206 75.1174L120.95 94.1125Z" fill="white"/>
<path d="M99.382 123.24C94.5959 131.876 90.7455 140.999 87.8962 150.452L35.7516 145.522L4.96094 142.612C8.12859 129.164 12.7952 116.114 18.8733 103.706L48.8012 110.98L99.382 123.24Z" fill="white"/>
<path d="M86.1168 157.025C83.6969 166.729 82.3408 176.667 82.0725 186.663L30.5481 189.196L9.68369e-05 190.678C9.68369e-05 188.953 9.68369e-05 187.229 9.68369e-05 185.478C-0.0123743 173.301 1.17975 161.154 3.55908 149.212L34.2149 152.095L86.1168 157.025Z" fill="white"/>
<path d="M149.18 71.534C140.922 76.5439 133.206 82.3949 126.155 88.9933L78.7822 69.8904L50.3643 58.4125C59.7403 48.4448 70.1833 39.536 81.5054 31.8463L107.2 46.9077L149.18 71.534Z" fill="white"/>
<path d="M217.829 51.5154C208.552 51.7313 199.321 52.8776 190.273 54.9372L154.656 26.0808L132.116 7.78625C145.002 3.90666 158.275 1.44914 171.696 0.457642L190.085 20.7999L217.829 51.5154Z" fill="white"/>
</g>
</svg>
